REM MD5 250c658636ea7178d2fcf19eac96150a
FILE "Dexter's Laboratory - Mandark's Lab (Europe).bin" BINARY
  TRACK 01 MODE2/2352
    INDEX 01 00:00:00
  TRACK 02 AUDIO
    INDEX 00 24:36:18
    INDEX 01 24:38:18
  TRACK 03 AUDIO
    INDEX 00 24:54:18
    INDEX 01 24:56:18
REM LEADOUT 41:19:18
